<svg width="174" height="35" viewBox="0 0 174 35" fill="none" xmlns="http://www.w3.org/2000/svg">
<path d="M11.8763 33.7064H5.37955V17.3378H0.953857V12.0085H5.37938V8.21636C5.37938 3.72263 7.33679 0.499756 13.8159 0.499756C15.1863 0.499756 17.3377 0.778915 17.3377 0.778915V5.72745H15.078C12.7756 5.72745 11.8766 6.43528 11.8766 8.39218V12.0085H17.2515L16.7728 17.3378H11.8765L11.8763 33.7064ZM26.7832 11.5826C26.6885 11.5826 26.5911 11.5861 26.4947 11.5886C20.4706 11.5886 17.7144 16.1684 17.7144 22.6695C17.7144 30.8592 21.2896 34.137 26.5418 34.137C29.5468 34.137 31.5211 32.8587 32.7211 30.4731V33.7087H38.9004V12.0108H32.7211V15.3476C31.7413 13.2008 29.7118 11.6081 26.7832 11.5826ZM28.3544 16.7098C30.8846 16.7098 32.4032 18.4935 32.4032 21.5275L32.409 24.6263C32.409 26.6712 31.1547 29.0635 28.3544 29.0635C24.0492 29.0635 24.1642 24.3652 24.1642 22.8004C24.1642 17.5366 26.458 16.7098 28.3544 16.7098ZM41.396 22.8609C41.396 20.2242 41.2711 11.5968 52.3925 11.5968C56.8568 11.5968 58.721 13.0314 58.721 13.0314L57.2227 17.7281C57.2227 17.7281 55.361 16.692 52.9351 16.692C49.828 16.692 47.8454 18.5125 47.8454 21.7155L47.8489 24.0122C47.8489 27.0899 49.7618 29.1444 52.9415 29.1444C55.1515 29.1444 57.1884 28.0985 57.1884 28.0985L58.6829 32.6971C58.6829 32.6971 56.9784 34.1408 52.4237 34.1408C41.8344 34.1408 41.3961 26.4004 41.3961 22.8609H41.396ZM94.9525 11.5886C100.977 11.5886 103.777 16.1684 103.777 22.6695C103.777 30.8592 100.201 34.137 94.9489 34.137C91.9439 34.137 89.7225 32.8588 88.5225 30.4731V33.7087L82.421 33.7062V1.15949L88.8993 0.588452V15.0537C89.8343 12.5229 92.907 11.5886 94.9527 11.5886H94.9525ZM93.1363 16.7098C90.6062 16.7098 88.8993 18.4935 88.8993 21.5275L88.8932 24.6263C88.8894 26.6712 90.0753 29.0635 93.1363 29.0635C97.4415 29.0635 97.3265 24.3652 97.3265 22.8004C97.3265 17.5366 95.0329 16.7098 93.1363 16.7098ZM69.9613 11.6065C63.1286 11.6065 59.5213 15.3717 59.5213 22.0628V23.3059C59.5213 31.9903 64.587 34.2262 70.6263 34.2262C76.4965 34.2262 79.1536 32.5668 79.1536 32.5668L77.9413 28.1476C77.9413 28.1476 74.8158 29.4917 71.403 29.4917C67.8651 29.4917 66.3436 28.5803 65.9536 25.144H79.6715V21.5987C79.6715 14.3406 75.623 11.6063 69.9611 11.6063L69.9613 11.6065ZM70.126 16.0316C72.4911 16.0316 74.0237 17.4974 73.9396 20.897H65.9654C66.1037 17.319 67.7565 16.0318 70.126 16.0318V16.0316ZM116.694 11.5767C109.677 11.5767 105.983 15.5731 105.983 22.7349C105.983 32.5612 112.351 34.1429 116.706 34.1429C123.081 34.1429 127.322 30.674 127.322 22.8241C127.322 14.6537 122.553 11.5767 116.694 11.5767ZM116.606 16.7276C119.691 16.7276 120.914 19.0614 120.914 21.7179V24.0019C120.914 27.2201 119.203 29.0815 116.594 29.0815C114.154 29.0815 112.439 27.3403 112.439 24.0019V21.7179C112.439 18.1575 114.48 16.7276 116.606 16.7276ZM140.228 11.5767C133.211 11.5767 129.517 15.5731 129.517 22.7349C129.517 32.5612 135.885 34.1429 140.24 34.1429C146.615 34.1429 150.856 30.674 150.856 22.8241C150.856 14.6537 146.087 11.5767 140.228 11.5767ZM140.14 16.7276C143.225 16.7276 144.448 19.0614 144.448 21.7179V24.0019C144.448 27.2201 142.737 29.0815 140.128 29.0815C137.688 29.0815 135.973 27.3403 135.973 24.0019V21.7179C135.973 18.1575 138.014 16.7276 140.14 16.7276ZM153.304 33.7064V1.15949L159.802 0.588452V22.4035L166.247 12.0085H173.109L166.385 22.7746L173.368 33.7064H166.487L159.802 23.0918V33.7064H153.304Z" fill="#BCBACD"/>
</svg>
