<svg width="155" height="51" viewBox="0 0 155 51" fill="none" xmlns="http://www.w3.org/2000/svg">
<path d="M19.2522 0H20.6195C25.3664 0.104297 30.0359 2.03378 33.3897 5.4495C32.1514 6.72713 30.8873 7.95262 29.6748 9.23025C27.7915 7.50935 25.5212 6.17957 23.0446 5.71024C19.3812 4.92801 15.434 5.63202 12.364 7.74402C9.01022 9.96032 6.73996 13.715 6.24979 17.7304C5.70802 21.6937 6.81736 25.8656 9.3714 28.9423C11.8223 31.9408 15.563 33.8182 19.4328 33.9485C23.0446 34.1571 26.8111 33.0359 29.4426 30.4807C31.5065 28.6816 32.461 25.9438 32.7706 23.2842C28.488 23.2842 24.2055 23.3103 19.923 23.2842V17.9129H37.9561C38.8848 23.6753 37.5433 30.1678 33.2092 34.2875C30.3197 37.2078 26.321 38.9287 22.2448 39.2677C18.2977 39.6588 14.2215 38.9026 10.7129 36.9731C6.50777 34.7047 3.15398 30.8718 1.50288 26.361C-0.0450282 22.2152 -0.0708266 17.5218 1.37389 13.35C2.68961 9.54314 5.21785 6.17957 8.46846 3.8329C11.5901 1.5123 15.3824 0.234667 19.2522 0Z" fill="#BCBACD"/>
<path d="M122.704 1.35596H128.225V38.5898C126.394 38.5898 124.536 38.6158 122.704 38.5637C122.73 26.1785 122.704 13.7672 122.704 1.35596Z" fill="#BCBACD"/>
<path d="M50.2354 14.2627C53.6408 13.6108 57.33 14.3409 60.142 16.4007C62.696 18.2259 64.4761 21.094 65.0179 24.2229C65.7145 27.8472 64.8373 31.8104 62.5155 34.6786C60.013 37.8857 55.911 39.6065 51.9123 39.3458C48.2489 39.1372 44.6887 37.286 42.5216 34.2614C40.0708 30.9239 39.4774 26.3349 40.8189 22.4238C42.1605 18.2259 45.9528 15.0188 50.2354 14.2627ZM51.0093 19.2167C49.6162 19.5818 48.3263 20.39 47.3976 21.5373C44.8951 24.5619 45.0499 29.4899 47.8103 32.3058C49.384 33.9224 51.7575 34.6786 53.9504 34.2353C55.9884 33.8703 57.7685 32.4884 58.7489 30.6632C60.4516 27.5604 59.9614 23.2843 57.3558 20.8594C55.6789 19.2949 53.228 18.6431 51.0093 19.2167Z" fill="#BCBACD"/>
<path d="M77.5796 14.2625C81.4752 13.5064 85.7319 14.6015 88.6471 17.3653C93.3941 21.6676 93.91 29.7245 89.8597 34.6786C87.4088 37.8075 83.4358 39.5284 79.5145 39.3459C75.7737 39.2416 72.0845 37.3642 69.8659 34.2614C67.3634 30.8457 66.8216 26.1523 68.2406 22.163C69.6595 18.0954 73.3745 14.9926 77.5796 14.2625ZM78.3536 19.2166C76.9604 19.5816 75.6705 20.3899 74.7418 21.5111C72.2651 24.4836 72.3683 29.3334 75.0256 32.1755C76.5993 33.8703 79.0501 34.7047 81.3204 34.2353C83.3327 33.8442 85.1385 32.4884 86.1189 30.6632C87.7958 27.5343 87.3056 23.2581 84.6742 20.8332C82.9973 19.2688 80.5464 18.643 78.3536 19.2166Z" fill="#BCBACD"/>
<path d="M100.775 15.775C103.742 13.8977 107.689 13.3762 110.888 14.9928C111.894 15.436 112.72 16.1922 113.52 16.9483C113.546 16.2443 113.52 15.5143 113.546 14.7842C115.274 14.8103 117.003 14.7842 118.757 14.8103V37.8076C118.731 41.2755 117.854 44.9519 115.377 47.4811C112.668 50.271 108.515 51.1315 104.774 50.5579C100.775 49.9582 97.2925 47.0118 95.7446 43.2832C97.2925 42.527 98.9178 41.9273 100.517 41.2233C101.42 43.3614 103.252 45.1866 105.548 45.6038C107.844 46.021 110.501 45.4473 111.998 43.5179C113.597 41.5362 113.597 38.8245 113.52 36.3996C112.333 37.573 110.966 38.6159 109.315 39.007C105.729 40.0239 101.781 38.7724 99.021 36.3214C96.2348 33.8704 94.5837 30.0897 94.7385 26.335C94.8159 22.0849 97.1893 17.9913 100.775 15.775ZM106.116 19.1125C104.542 19.3732 103.071 20.2598 102.065 21.4852C99.6402 24.4055 99.6402 29.0728 102.091 31.941C103.484 33.6358 105.729 34.5744 107.896 34.3398C109.934 34.1312 111.817 32.8275 112.823 31.0284C114.526 27.9777 114.242 23.8319 111.946 21.1723C110.527 19.5297 108.257 18.7214 106.116 19.1125Z" fill="#BCBACD"/>
<path d="M134.851 17.1047C137.947 14.1844 142.72 13.1936 146.693 14.732C150.459 16.166 152.859 19.7903 154.071 23.5189C148.473 25.8656 142.9 28.1862 137.302 30.5329C138.076 32.0191 139.263 33.375 140.862 33.9225C143.107 34.7308 145.79 34.444 147.673 32.9317C148.421 32.3581 149.015 31.6019 149.582 30.8718C151.001 31.8366 152.42 32.7753 153.839 33.74C151.827 36.7907 148.447 38.9288 144.809 39.2677C140.785 39.7631 136.502 38.1987 133.897 35.0176C129.614 30.0114 130.027 21.6155 134.851 17.1047ZM137.612 21.9284C136.735 23.2061 136.373 24.7705 136.399 26.3089C140.14 24.7444 143.881 23.18 147.622 21.5895C147.002 20.1293 145.506 19.2428 143.984 19.0081C141.533 18.5649 138.979 19.8946 137.612 21.9284Z" fill="#BCBACD"/>
</svg>
