<svg width="262" height="36" viewBox="0 0 262 36" fill="none" xmlns="http://www.w3.org/2000/svg">
<path d="M53.2745 29.3372V27.1591C54.5191 29.2438 56.8838 29.7105 58.2217 29.7105C62.2044 29.7105 65.5959 26.3191 65.5959 21.3407C65.5959 16.5802 62.5466 12.9398 58.0661 12.9398C56.5415 12.9398 54.7991 13.4687 53.7101 15.1178V7.09021H48.2962V29.3372H53.2745ZM53.5856 21.2785C53.5856 19.0382 55.0169 17.6692 56.9149 17.6692C58.6884 17.6692 60.1508 19.0382 60.1508 21.2785C60.1508 23.5187 58.6884 24.9811 56.9149 24.9811C55.0169 24.9811 53.5856 23.5499 53.5856 21.2785Z" fill="#5D5A88"/>
<path d="M79.2102 13.0642C78.9613 12.9709 78.6191 12.9398 78.2146 12.9398C76.0988 12.9398 74.543 14.091 73.7029 16.0512V13.3131H68.3201V29.3372H73.7341V23.4565C73.7341 20.0961 75.2587 18.0114 77.9968 18.0114C78.5568 18.0114 78.9613 18.0737 79.2102 18.1981V13.0642Z" fill="#5D5A88"/>
<path d="M81.2947 29.3372H86.7086V13.3131H81.2947V29.3372ZM81.0769 8.83263C81.0769 10.4506 82.3214 11.633 83.9705 11.633C85.6196 11.633 86.8953 10.4506 86.8953 8.83263C86.8953 7.21467 85.6196 6.03232 83.9705 6.03232C82.3214 6.03232 81.0769 7.21467 81.0769 8.83263Z" fill="#5D5A88"/>
<path d="M94.1389 21.4029L88.6316 29.3372H94.6368L97.2504 25.1056L99.864 29.3372H105.869L100.362 21.4029L105.994 13.3131H99.8329L97.2504 17.7625L94.6679 13.3131H88.5072L94.1389 21.4029Z" fill="#5D5A88"/>
<path d="M112.231 16.4557H114.284V22.8653C114.284 26.599 116.4 28.6526 119.885 28.6526C121.472 28.6526 122.685 28.3103 123.525 27.9058V23.332C122.872 23.7987 122.094 23.9232 121.441 23.9232C120.445 23.9232 119.698 23.332 119.698 21.963V16.4557H123.09V12.2552H119.698V7.93026H114.44V12.2552H112.231V16.4557Z" fill="#8D8BA7"/>
<path d="M140.17 21.5585C140.325 21.0606 140.481 20.0961 140.481 19.256C140.481 14.8688 137.369 11.8818 132.795 11.8818C128.066 11.8818 124.457 15.5533 124.457 20.2828C124.457 25.0122 127.973 28.6526 133.449 28.6526C136.156 28.6526 138.272 27.9681 140.387 26.0701L137.649 22.6475C136.871 23.3942 135.596 24.141 133.853 24.141C132.017 24.141 130.275 23.3631 130.026 21.5585H140.17ZM132.671 16.1756C134.071 16.1756 135.16 17.0468 135.253 18.4159V18.447H129.933C130.026 16.9846 131.271 16.1756 132.671 16.1756Z" fill="#8D8BA7"/>
<path d="M143.142 12.2552V28.2792H148.556V19.8472C148.556 17.8558 149.582 16.6112 151.107 16.6112C152.725 16.6112 153.596 17.6069 153.596 19.4738V28.2792H159.01V19.8472C159.01 17.8558 160.099 16.6112 161.562 16.6112C163.18 16.6112 164.051 17.6069 164.051 19.4738V28.2792H169.465V18.5092C169.465 14.371 167.162 11.8818 163.273 11.8818C160.566 11.8818 159.103 13.0953 158.014 14.4954C156.925 12.7841 155.183 11.8818 152.818 11.8818C150.92 11.8818 149.396 12.5352 148.307 14.1532V12.2552H143.142Z" fill="#8D8BA7"/>
<path d="M173.132 34.5021H178.546V26.7235C179.573 28.217 181.377 28.6526 182.902 28.6526C187.383 28.6526 190.432 25.0122 190.432 20.2516C190.432 15.2733 186.947 11.8818 182.964 11.8818C181.657 11.8818 179.448 12.3485 178.11 14.4332V12.2552H173.132V34.5021ZM178.422 20.3139C178.422 18.0425 179.853 16.6112 181.751 16.6112C183.524 16.6112 184.987 18.0736 184.987 20.3139C184.987 22.5541 183.524 23.9232 181.751 23.9232C179.853 23.9232 178.422 22.5541 178.422 20.3139Z" fill="#8D8BA7"/>
<path d="M192.969 23.4876C192.969 26.8479 194.898 28.6526 198.259 28.6526C199.348 28.6526 200.188 28.4659 200.779 28.1859V23.8298C200.375 23.9854 200.001 24.0165 199.721 24.0165C198.477 24.0165 198.383 23.2387 198.383 22.4919V6.03226H192.969V23.4876Z" fill="#8D8BA7"/>
<path d="M207.473 28.6526C209.588 28.6526 210.989 27.7192 211.611 26.5057V28.2792H216.62V18.2603C216.62 14.2776 213.882 11.8818 209.246 11.8818C206.104 11.8818 203.521 13.2509 202.152 14.9933L204.983 18.3848C205.824 17.4202 207.13 16.4868 208.966 16.4868C210.304 16.4868 211.455 16.9535 211.455 18.2914V18.3225L207.317 19.1315C203.957 19.8472 202.09 21.4651 202.09 23.8298C202.09 26.6613 204.361 28.6526 207.473 28.6526ZM211.455 21.5896V21.8385C211.455 23.612 210.46 24.7633 208.748 24.7633C207.784 24.7633 207.255 24.2654 207.255 23.4876C207.255 22.7097 207.877 22.3052 208.842 22.0874L211.455 21.5896Z" fill="#8D8BA7"/>
<path d="M218.549 16.4557H220.603V22.8653C220.603 26.599 222.719 28.6526 226.203 28.6526C227.79 28.6526 229.004 28.3103 229.844 27.9058V23.332C229.19 23.7987 228.413 23.9232 227.759 23.9232C226.763 23.9232 226.017 23.332 226.017 21.963V16.4557H229.408V12.2552H226.017V7.93026H220.758V12.2552H218.549V16.4557Z" fill="#8D8BA7"/>
<path d="M246.488 21.5585C246.644 21.0606 246.799 20.0961 246.799 19.256C246.799 14.8688 243.688 11.8818 239.114 11.8818C234.384 11.8818 230.775 15.5533 230.775 20.2828C230.775 25.0122 234.291 28.6526 239.767 28.6526C242.474 28.6526 244.59 27.9681 246.706 26.0701L243.968 22.6475C243.19 23.3942 241.914 24.141 240.172 24.141C238.336 24.141 236.593 23.3631 236.345 21.5585H246.488ZM238.989 16.1756C240.389 16.1756 241.478 17.0468 241.572 18.4159V18.447H236.251C236.345 16.9846 237.589 16.1756 238.989 16.1756Z" fill="#8D8BA7"/>
<path d="M254.999 28.6526C258.981 28.6526 261.657 26.4435 261.657 23.5809C261.657 20.4072 259.199 19.5671 256.679 18.5715C254.407 17.6069 253.443 17.4513 253.443 16.8602C253.443 16.269 254.158 15.9267 254.999 15.9267C256.492 15.9267 257.332 16.6424 257.861 17.5447L261.221 15.1177C260.226 13.2197 257.892 11.8818 255.154 11.8818C251.545 11.8818 248.527 13.6242 248.527 16.829C248.527 19.4116 250.3 20.6873 253.443 21.8074C255.652 22.5852 256.741 22.8653 256.741 23.7054C256.741 24.2966 256.15 24.6077 255.061 24.6077C253.443 24.6077 252.198 23.612 251.451 22.3363L247.998 24.9811C249.336 27.3458 252.012 28.6526 254.999 28.6526Z" fill="#8D8BA7"/>
<path fill-rule="evenodd" clip-rule="evenodd" d="M29.8656 10.4791C32.5314 10.4791 34.6925 8.31801 34.6925 5.6522C34.6925 2.98638 32.5314 0.825317 29.8656 0.825317C27.1998 0.825317 25.0387 2.98638 25.0387 5.6522C25.0387 8.31801 27.1998 10.4791 29.8656 10.4791Z" fill="#8D8BA7"/>
<path fill-rule="evenodd" clip-rule="evenodd" d="M29.8654 22.602C32.5312 22.602 34.6923 20.441 34.6923 17.7753C34.6923 15.1096 32.5312 12.9486 29.8654 12.9486C27.1996 12.9486 25.0385 15.1096 25.0385 17.7753C25.0385 20.441 27.1996 22.602 29.8654 22.602Z" fill="#8D8BA7"/>
<path fill-rule="evenodd" clip-rule="evenodd" d="M29.8654 35.1746C32.5312 35.1746 34.6923 33.0135 34.6923 30.3477C34.6923 27.6819 32.5312 25.5209 29.8654 25.5209C27.1996 25.5209 25.0385 27.6819 25.0385 30.3477C25.0385 33.0135 27.1996 35.1746 29.8654 35.1746Z" fill="#8D8BA7"/>
<path fill-rule="evenodd" clip-rule="evenodd" d="M17.2934 22.602C19.9591 22.602 22.1201 20.441 22.1201 17.7753C22.1201 15.1096 19.9591 12.9486 17.2934 12.9486C14.6276 12.9486 12.4666 15.1096 12.4666 17.7753C12.4666 20.441 14.6276 22.602 17.2934 22.602Z" fill="#8D8BA7"/>
<path fill-rule="evenodd" clip-rule="evenodd" d="M17.2932 35.1747C19.9589 35.1747 22.1199 33.0136 22.1199 30.3478C22.1199 27.682 19.9589 25.5209 17.2932 25.5209C14.6275 25.5209 12.4665 27.682 12.4665 30.3478C12.4665 33.0136 14.6275 35.1747 17.2932 35.1747Z" fill="#8D8BA7"/>
<path fill-rule="evenodd" clip-rule="evenodd" d="M5.16961 35.1746C7.83542 35.1746 9.99648 33.0135 9.99648 30.3477C9.99648 27.6819 7.83542 25.5209 5.16961 25.5209C2.50379 25.5209 0.342728 27.6819 0.342728 30.3477C0.342728 33.0135 2.50379 35.1746 5.16961 35.1746Z" fill="#8D8BA7"/>
</svg>
