<svg width="184" height="45" viewBox="0 0 184 45" fill="none" xmlns="http://www.w3.org/2000/svg">
<path d="M19.6869 0.230462C17.3145 0.499175 13.7559 1.61537 11.7311 2.73157C6.29096 5.68742 2.60963 10.2969 0.768962 16.436C0.400829 17.6348 -0.0286596 20.9007 -0.00820779 22.4303C-0.00820779 23.7739 0.400829 27.0605 0.646251 27.846C0.768962 28.218 1.03484 29.1068 1.25981 29.789C1.62794 30.9465 3.40725 34.5845 3.71403 34.8325C3.77538 34.8945 4.10261 35.3079 4.40939 35.7834C5.16611 36.9202 7.14994 38.9459 8.64292 40.1034C9.78822 40.9923 13.0196 42.8733 13.4286 42.8939C13.5309 42.8939 13.5514 42.1085 13.49 41.0749C13.3468 38.7805 13.7763 35.6593 14.6967 32.4761C14.8603 31.9387 14.983 31.2359 14.983 30.9258C14.983 30.6158 15.0648 30.2851 15.1671 30.1817C15.2693 30.0577 15.4534 29.4582 15.5556 28.8381C15.6784 28.218 15.8829 27.2672 16.026 26.7298C16.2305 25.9236 16.2101 25.6136 15.9238 24.7454C15.5147 23.4225 15.4943 21.2728 15.9033 20.2393C16.8646 17.7795 17.9281 16.8494 19.7278 16.8494C21.8957 16.8494 22.9388 18.503 22.5297 21.2728C22.3456 22.5337 21.8344 24.518 21.5071 25.1382C21.4253 25.3242 21.2822 25.8409 21.2208 26.275C21.139 26.7298 20.9754 27.3705 20.8731 27.7219C20.5868 28.5281 21.139 30.099 21.8753 30.6985C22.5706 31.2566 24.0227 31.4219 25.3521 31.1119C26.2929 30.9052 26.6814 30.6571 27.6631 29.7063C28.8289 28.5488 29.7083 27.2052 29.7083 26.5644C29.7083 26.3784 29.8106 26.1303 29.9333 26.0063C30.5059 25.4275 30.8127 20.9214 30.3832 19.0197C29.9128 16.9321 28.4607 14.8857 26.5792 13.6868C24.6976 12.4673 20.8118 12.1159 18.4189 12.9427C16.7418 13.5215 15.2489 14.493 14.2876 15.6298C13.4286 16.6427 12.5288 18.2963 12.5288 18.8751C12.5288 19.0818 12.4265 19.3505 12.3038 19.4745C12.1811 19.5985 12.0379 20.384 11.9766 21.2315C11.8743 22.4924 11.9561 23.0711 12.3243 24.3113C12.5697 25.1588 13.0196 26.151 13.2855 26.5231C13.8377 27.2672 13.8377 27.5566 13.3264 29.5409C13.1832 30.0784 12.9378 30.5744 12.7946 30.6364C11.5062 31.1325 8.88834 28.0113 8.00891 24.9108C7.68168 23.7326 7.66123 19.5365 7.98846 18.2963C8.13162 17.7795 8.37704 17.0767 8.54066 16.7047C8.70427 16.3533 8.84744 16.0019 8.84744 15.9192C8.84744 15.8365 9.25647 15.1337 9.76777 14.3689C12.4265 10.3176 16.7418 8.16785 22.2025 8.16785C23.45 8.16785 24.7385 8.25053 25.0862 8.35388C27.9085 9.24271 28.6653 9.53209 29.7697 10.1935C31.9171 11.4958 33.4714 13.2734 35.0258 16.2499C35.128 16.436 35.2712 16.9321 35.3326 17.3455C35.4144 17.7589 35.5575 18.1516 35.6598 18.2136C35.7621 18.2756 35.8439 19.6192 35.8439 21.2108C35.8439 24.084 35.6393 25.2415 34.7804 27.5979C33.8191 30.1817 31.3445 33.0342 29.0948 34.1504C27.8063 34.7705 25.393 35.4526 24.4317 35.4526C23.1433 35.4526 20.6072 34.3778 19.9119 33.5096C19.5847 33.1169 19.2779 33.2616 19.2779 33.8197C19.2779 34.0264 19.1961 34.3778 19.0734 34.5845C18.9711 34.7705 18.787 35.3493 18.6848 35.866C18.0917 38.5945 17.2531 40.8062 15.9647 42.8733C15.5761 43.514 15.9033 43.8861 16.9668 44.0308C17.4986 44.1135 18.2144 44.2582 18.5416 44.3615C19.3597 44.6302 23.7977 44.5889 25.2907 44.3202C26.6405 44.0721 28.8289 43.452 29.8106 43.0386C35.987 40.4755 40.6705 35.2666 42.6952 28.6314C43.7792 25.0968 43.8405 20.9834 42.8588 16.8494C42.5316 15.5058 42.4294 15.1957 41.5499 13.1287C40.2819 10.1109 37.4187 6.57624 34.5145 4.40586C32.0194 2.54553 29.5651 1.47068 25.7407 0.540516C24.6772 0.292472 20.8936 0.0857696 19.6869 0.230462ZM74.232 7.69243C73.4343 7.81646 72.1663 9.13935 71.8391 10.1729C71.4914 11.3097 71.8391 12.5293 72.8208 13.4801C74.9887 15.6092 78.7518 13.6041 78.2814 10.5449C77.9951 8.60193 76.2362 7.36171 74.232 7.69243ZM51.9395 8.91198C51.7554 9.11868 51.7554 34.047 51.9599 34.3364C52.0622 34.5018 52.9416 34.5638 54.6595 34.5431L57.216 34.5225L57.3183 30.3264C57.4001 26.9158 57.4819 26.089 57.7273 25.9443C57.8909 25.8409 59.2817 25.7376 60.8156 25.7376C64.1697 25.7376 65.5808 25.4895 67.1147 24.6627C69.119 23.5672 70.2848 21.9963 70.9188 19.4952C71.3073 17.9242 71.3073 16.7874 70.8983 15.1751C70.5302 13.7282 70.3666 13.3768 69.4871 12.1986C68.4032 10.731 67.2988 9.92483 65.499 9.28405C64.4969 8.95332 63.6584 8.89131 58.2386 8.8293C54.8641 8.78796 52.0213 8.8293 51.9395 8.91198ZM63.1675 14.0589C64.5378 14.493 65.2127 15.1131 65.5195 16.2293C65.9081 17.6968 65.6217 19.0611 64.7628 19.8879C63.822 20.7767 62.9834 20.9834 60.2429 20.9834C58.4431 20.9834 57.8909 20.9214 57.6455 20.6527C57.3796 20.4047 57.3183 19.8052 57.3183 17.4488C57.3183 13.7282 57.2978 13.7488 60.1406 13.7488C61.3677 13.7488 62.554 13.8728 63.1675 14.0589ZM99.04 12.8393C99.04 14.2656 98.9378 15.6092 98.8355 15.8365C98.6924 16.1052 98.406 16.2293 97.9152 16.2293C97.5471 16.2293 97.1994 16.3119 97.1585 16.436C97.138 16.5393 97.138 17.2628 97.1994 18.0276C97.3016 19.3918 97.3221 19.4125 97.9356 19.5572C98.2833 19.6192 98.6719 19.7432 98.7946 19.8259C98.9787 19.9292 99.04 21.5622 99.04 25.6962C99.04 31.2566 99.0605 31.4633 99.5104 32.2901C100.451 34.047 101.924 34.6672 104.91 34.5845L106.914 34.5225L106.975 32.5174L107.037 30.4918H106.525C105.748 30.4918 104.603 29.8717 104.48 29.3756C104.419 29.1275 104.358 26.9365 104.358 24.4767C104.358 21.0868 104.419 19.9499 104.623 19.7845C104.767 19.6605 105.339 19.5365 105.891 19.4952L106.914 19.4332V16.3326L105.789 16.2706C105.176 16.2293 104.603 16.0846 104.521 15.9605C104.439 15.8159 104.358 14.4723 104.358 12.9634V10.2349H99.04V12.8393ZM175.06 10.3589C174.978 10.4416 174.916 11.7438 174.916 13.2527C174.916 16.1879 174.896 16.2293 173.771 16.2293C173.26 16.2293 173.26 16.2499 173.321 17.8209C173.382 19.3918 173.403 19.4332 173.935 19.4952C174.221 19.5365 174.569 19.6812 174.671 19.8052C174.794 19.9499 174.916 22.451 174.978 25.6342C175.039 28.6934 175.141 31.4839 175.223 31.8147C175.469 32.7241 176.737 33.8817 177.943 34.2744C179.293 34.7292 182.729 34.7705 183.077 34.3364C183.24 34.1504 183.302 33.4063 183.261 32.3314L183.199 30.5951L182.484 30.4711C181.706 30.3471 180.827 29.9337 180.602 29.5823C180.52 29.4582 180.438 27.2052 180.438 24.5801C180.438 19.1851 180.316 19.5365 182.095 19.5365C183.261 19.5365 183.363 19.3298 183.261 17.4488L183.199 16.3326L181.87 16.2293L180.541 16.1259L180.438 13.2321L180.336 10.3382L177.759 10.2762C176.348 10.2555 175.141 10.2969 175.06 10.3589ZM88.9164 15.7332C87.9142 16.0019 86.7485 16.684 85.9713 17.4901C85.0305 18.4823 84.7851 18.4203 84.6828 17.1594L84.6215 16.3326H79.5085V34.5225L82.0855 34.5638C84.6215 34.6258 84.6828 34.6051 84.8055 34.1504C84.8669 33.9024 84.9283 31.2772 84.9283 28.3007C84.9283 22.4097 84.9487 22.2443 86.1554 21.0868C86.6871 20.57 86.9734 20.4667 88.1188 20.4047L89.4481 20.322L90.2457 21.1695C91.1865 22.1616 91.0843 21.2108 91.1661 29.7683C91.1865 32.042 91.207 34.047 91.2274 34.2537C91.2683 34.5431 91.5956 34.5845 93.8862 34.5431L96.4836 34.5225V20.0119L95.8904 18.8337C94.8679 16.7874 93.2931 15.8159 90.8797 15.6918C90.0208 15.6712 89.1413 15.6712 88.9164 15.7332ZM114.481 15.7332C112.272 16.3326 111.209 16.932 109.839 18.2963C107.998 20.1773 107.159 22.3683 107.159 25.3242C107.18 30.5124 110.391 34.3571 115.136 34.8118C119.185 35.2046 122.314 34.0057 124.318 31.2979C124.605 30.9052 125.218 29.6443 125.218 29.4169C125.218 29.3342 124.032 29.2515 122.601 29.2515H119.983L119.369 29.8923C118.653 30.6364 117.651 31.1119 116.731 31.1119C115.811 31.1119 114.399 30.4504 113.745 29.7476C113.254 29.1895 112.538 27.5772 112.538 27.0191C112.538 26.8331 114.031 26.7711 118.837 26.7711C122.294 26.7711 125.218 26.6884 125.362 26.6057C125.668 26.399 125.382 23.1125 124.932 21.9136C124.012 19.4125 122.273 17.3041 120.514 16.56C120.003 16.3533 119.41 16.0846 119.206 15.9812C118.776 15.7538 115.136 15.5678 114.481 15.7332ZM118.469 20.26C119.267 20.8181 119.962 22.141 119.86 22.8851C119.799 23.3605 119.758 23.3605 116.301 23.4225C112.313 23.4845 112.293 23.4639 112.927 21.9756C113.377 20.9421 114.277 20.0119 115.115 19.7432C116.076 19.4332 117.631 19.6812 118.469 20.26ZM144.75 15.7332C142.377 16.374 140.721 17.4281 139.432 19.0611C138.921 19.7225 138.512 20.3426 138.512 20.4667C138.512 20.57 138.369 20.9421 138.185 21.2935C138.001 21.6242 137.735 22.6577 137.592 23.5879C136.876 28.0113 138.839 32.1454 142.521 34.0057L143.932 34.7292H146.897C149.965 34.7292 150.231 34.6672 152.113 33.6543C153.483 32.9102 155.733 30.0163 155.385 29.4376C155.303 29.3342 154.137 29.2515 152.767 29.2515H150.251L149.74 29.851C147.695 32.1867 143.87 30.9878 143.052 27.7426C142.93 27.3085 142.93 26.9365 143.032 26.8538C143.134 26.7918 146.059 26.7504 149.556 26.7711C154.546 26.7711 155.896 26.7298 155.917 26.5231C156.101 23.9393 154.874 20.1153 153.34 18.4617C152.481 17.5315 150.988 16.498 150.251 16.3119C149.924 16.2293 149.556 16.0846 149.413 15.9812C149.127 15.7538 145.384 15.5678 144.75 15.7332ZM147.94 19.7639C148.861 20.0946 149.924 21.2521 150.088 22.141C150.333 23.4845 150.354 23.4845 146.55 23.4225C143.134 23.3605 143.114 23.3605 143.052 22.8851C142.971 22.3063 143.686 20.8801 144.3 20.3426C145.179 19.5985 146.713 19.3505 147.94 19.7639ZM162.543 15.7332C158.35 16.746 156.837 18.2549 156.816 21.3968C156.816 24.7868 158.494 26.213 163.463 27.1018C166.879 27.7013 167.86 28.2387 167.82 29.5409C167.799 30.4711 167.165 31.0705 165.897 31.3392C164.302 31.6906 163.054 31.2979 162.052 30.161L161.255 29.2515H158.78C156.776 29.2515 156.305 29.3136 156.305 29.5409C156.305 30.1404 157.123 31.7113 157.798 32.4968C158.432 33.1789 158.923 33.5096 160.845 34.4398C161.03 34.5431 162.032 34.7085 163.034 34.8325C164.895 35.0599 168.126 34.8532 168.944 34.4398C169.128 34.3571 169.66 34.0884 170.11 33.8817C171.276 33.3236 172.38 32.0627 172.789 30.8638C173.239 29.4996 173.117 27.5979 172.483 26.275C171.726 24.7247 169.722 23.6086 166.736 23.0711C162.891 22.389 162.829 22.3683 162.216 21.7689C161.479 21.0041 161.479 20.7354 162.216 19.9086C162.809 19.2471 162.85 19.2265 164.486 19.2265C166.122 19.2265 166.163 19.2471 166.756 19.9086C167.083 20.2806 167.349 20.7147 167.349 20.8801C167.349 21.1281 167.779 21.1901 169.906 21.1901C172.728 21.1901 172.646 21.2521 172.155 19.7845C171.255 17.1801 168.944 15.8572 165.099 15.7125C163.913 15.6712 162.768 15.6712 162.543 15.7332ZM135.342 16.1672C134.442 16.4773 133.195 17.5108 132.806 18.2549C132.417 18.9991 132.07 18.689 131.967 17.4488L131.865 16.3326H126.752L126.691 25.0141C126.67 29.789 126.691 33.9024 126.752 34.1711C126.855 34.6258 126.916 34.6258 129.37 34.5845C130.781 34.5638 131.927 34.4398 132.008 34.3158C132.09 34.2124 132.172 32.0214 132.172 29.4582C132.172 25.4069 132.213 24.6834 132.561 23.7739C133.276 21.8929 134.81 20.7767 136.733 20.7767C137.265 20.7767 137.489 20.6734 137.551 20.4047C137.694 19.8052 137.714 17.0147 137.592 16.3946C137.469 15.8985 137.367 15.8159 136.815 15.8365C136.446 15.8572 135.792 16.0019 135.342 16.1672ZM72.3504 16.4773C72.289 16.622 72.2686 20.694 72.289 25.5309L72.3504 34.3158L74.7842 34.4191C76.2567 34.4811 77.3202 34.4398 77.4838 34.3158C77.7088 34.1504 77.7701 32.3934 77.7701 25.3655C77.7906 20.57 77.7292 16.5393 77.6679 16.436C77.4633 16.1259 72.4526 16.1672 72.3504 16.4773Z" fill="#BCBACD"/>
</svg>
