<svg width="136" height="47" viewBox="0 0 136 47" fill="none" xmlns="http://www.w3.org/2000/svg">
<path d="M130.041 9.04657H124.076V0.695312H110.978L104.954 9.04657H94.2499L90.6708 12.6257V9.04657H82.3196V0.695312H56.0727V9.04657H19.1482L13.1234 0.695312H0V29.3282L16.7025 46.0307H33.405V41.2586L38.1772 46.0307H70.3892V41.2586L75.1613 46.0307H90.6708V41.2586L95.443 46.0307H125.269L136.006 35.2934V15.0118L130.041 9.04657ZM20.2816 20.9769H11.9304V23.363H20.2816V32.9073H7.15822L2.38607 28.1352V3.08139H11.9304V11.4326H20.2816V20.9769ZM56.0727 32.9073H27.4399L22.6677 28.1352V11.4326H32.212V23.363H34.5981V11.4326H44.1424V23.363H46.5285V11.4326H56.0727V32.9073ZM68.0031 32.9073H58.4588V11.4326H68.0031V32.9073ZM68.0031 9.04657H58.4588V3.08139H68.0031V9.04657ZM88.2848 20.9769H79.9335V23.363H88.2848V32.9073H75.1613L70.3892 28.1352V3.08139H79.9335V11.4326H88.2848V20.9769ZM109.759 20.9769H100.215V23.363H109.759V32.9073H95.443L90.6708 28.1352V16.2048L95.443 11.4326H109.759V20.9769ZM133.62 32.9073H124.076V20.9769H121.69V32.9073H112.145V3.08139H121.69V11.4326H128.848L133.62 16.2048V32.9073Z" fill="#BCBACD"/>
</svg>
