<svg width="176" height="40" viewBox="0 0 176 40" fill="none" xmlns="http://www.w3.org/2000/svg">
<path d="M29.2103 39.8554L17.7407 39.6433C14.027 39.5695 10.3042 39.717 6.66345 38.9516C1.12484 37.8081 0.732484 32.2011 0.321878 27.4979C-0.243845 20.8857 -0.024855 14.1537 1.04272 7.59681C1.64494 3.91723 4.01733 1.7224 7.6854 1.48263C20.0674 0.615758 32.5316 0.7172 44.8863 1.12297C46.1911 1.15986 47.505 1.36274 48.7916 1.59329C55.1423 2.71837 55.2974 9.07233 55.708 14.4211C56.1186 19.8252 55.9452 25.2569 55.1605 30.6241C54.5309 35.0691 53.3265 38.7948 48.2441 39.1545C41.8751 39.6248 35.6522 40.0029 29.265 39.883C29.265 39.8554 29.2285 39.8554 29.2103 39.8554ZM22.4672 28.6045C27.2667 25.8195 31.975 23.0805 36.7471 20.3139C31.9385 17.5289 27.2393 14.79 22.4672 12.0234V28.6045Z" fill="#BCBACD"/>
<path d="M147.705 34.8018C147.486 35.7056 147.295 36.4157 147.103 37.1719H142.614V2.17407H147.851V15.085C148.125 14.7346 148.262 14.587 148.38 14.4302C149.275 13.1852 150.433 12.3737 151.93 12.0602C154.311 11.5898 156.346 12.6504 157.067 14.9651C157.532 16.4038 157.833 17.9438 157.87 19.447C157.943 23.3111 157.888 27.1659 157.751 31.03C157.697 32.2104 157.341 33.4185 156.894 34.5252C155.425 38.1771 150.625 38.7304 148.244 35.5673C148.098 35.3736 147.961 35.1615 147.705 34.8018ZM147.961 25.174V31.5741C147.961 32.6162 148.508 33.2525 149.539 33.4923C150.552 33.7321 151.373 33.3355 151.784 32.3856C151.957 31.9891 152.131 31.5741 152.14 31.1591C152.24 27.2489 152.331 23.3388 152.359 19.4194C152.359 18.6908 152.185 17.9346 151.966 17.2245C151.556 15.9427 150.424 15.5645 149.311 16.3115C148.472 16.8833 147.961 17.6949 147.961 18.7738V25.174ZM133.726 12.5581H139.21V37.1903H134.931C134.776 36.2589 134.621 35.2998 134.438 34.1747C134.146 34.6082 133.973 34.8848 133.79 35.1615C132.367 37.2365 130.35 37.9466 127.969 37.5685C125.934 37.2365 124.711 35.6503 124.438 33.0496C124.355 32.275 124.319 31.4911 124.319 30.7164C124.301 24.9526 124.319 19.1704 124.319 13.4066V12.5397H129.867V13.5449C129.867 19.1151 129.848 24.676 129.885 30.2461C129.885 31.0392 129.967 31.86 130.104 32.6531C130.259 33.4646 130.843 33.7597 131.628 33.7044C132.896 33.603 133.772 32.6531 133.772 31.3804V13.6464C133.726 13.2867 133.726 12.9547 133.726 12.5581ZM95.969 12.5397H101.48V13.5818C101.48 19.1243 101.462 24.6575 101.498 30.1816C101.498 30.9747 101.571 31.7954 101.736 32.5701C101.946 33.4831 102.475 33.7782 103.378 33.6583C104.628 33.4831 105.386 32.607 105.395 31.3251V13.6832V12.5766H110.878V37.1903H106.617C106.462 36.2774 106.307 35.3367 106.106 34.1471C105.833 34.5621 105.678 34.8018 105.522 35.0508C104.099 37.1627 102.101 37.9373 99.6644 37.5592C97.7118 37.2641 96.5165 35.807 96.1515 33.4185C96.0511 32.6715 95.9781 31.9338 95.9781 31.1868C95.9599 25.2016 95.9599 19.1888 95.9599 13.2037L95.969 12.5397ZM93.1404 25.6904C93.1221 26.5204 93.0674 27.3504 93.0218 28.1804C92.8119 30.6703 92.7115 34.2024 90.7224 36.0191C89.4541 37.1627 87.8481 37.5777 86.1875 37.633C85.4484 37.6515 84.7002 37.6515 83.9611 37.55C80.4664 37.0151 78.8422 35.4566 78.2582 31.5741C77.5921 27.0922 77.5374 22.5364 78.3312 18.0545C79.1524 13.4158 81.981 11.7743 86.3791 12.0786C90.4851 12.3737 92.3192 15.0942 92.8028 18.9675C93.0674 21.19 93.1951 23.4402 93.1404 25.6904ZM87.5561 24.842C87.5561 23.265 87.5926 21.6788 87.5379 20.1018C87.5014 19.1888 87.3828 18.2666 87.1912 17.3629C86.9722 16.3208 86.3152 15.8228 85.494 15.8412C84.691 15.8597 84.1253 16.3576 83.8333 17.326C83.733 17.6856 83.6235 18.0545 83.6235 18.4142C83.6235 20.8857 83.6052 23.3664 83.587 25.838C83.5687 28.1435 83.2767 30.5597 83.9976 32.7637C84.2166 33.437 84.7823 33.8058 85.5214 33.8058C86.2422 33.8058 86.7167 33.4462 86.9813 32.8006C87.1912 32.3026 87.3737 31.7585 87.3737 31.2237C87.4375 29.1026 87.5561 26.9723 87.5561 24.842ZM70.2104 20.2033C70.694 17.8147 71.1502 15.4816 71.6521 13.1391C72.2816 10.1604 72.9842 7.18167 73.6047 4.19371C73.7598 3.46516 74.0518 3.28995 74.7361 3.30839C76.2052 3.36372 77.7016 3.32683 79.2711 3.32683C78.7601 5.22658 78.2582 7.03411 77.7655 8.81398C76.2052 14.4026 74.6449 20.0096 73.1029 25.6166C72.9842 26.0501 72.9295 26.5204 72.9295 26.9815C72.9112 30.0432 72.9295 33.0957 72.9295 36.1575V37.1535H67.5734C67.5551 36.8768 67.5186 36.6001 67.5186 36.3235C67.5186 34.5897 67.3818 32.8467 67.5369 31.1314C67.9292 27.0092 66.6335 23.2189 65.5842 19.3825C64.1973 14.3103 62.7921 9.21975 61.4052 4.1476C61.3322 3.90783 61.3048 3.64961 61.2318 3.3545H66.6974C67.8471 8.95231 69.0059 14.5501 70.2104 20.2033ZM175.006 26.6311H165.772C165.872 28.5031 165.909 30.283 166.1 32.0444C166.237 33.271 166.903 33.7966 167.953 33.8058C169.048 33.8243 169.686 33.271 169.942 32.0536C170.024 31.6571 170.079 31.2605 170.115 30.8548C170.152 30.4951 170.17 30.1078 170.197 29.5913C171.758 29.6743 173.281 29.7666 174.787 29.8311C175.663 32.4594 174.084 35.8347 171.429 36.8768C169.34 37.7068 167.195 37.7068 165.06 37.0705C163.482 36.6001 162.304 35.5857 161.775 34.0272C161.283 32.5701 160.817 31.0484 160.717 29.5268C160.443 25.7734 160.343 21.9831 160.908 18.2205C161.009 17.5934 161.182 16.994 161.374 16.3853C162.14 13.8769 163.81 12.3368 166.392 12.0786C167.797 11.9403 169.248 11.9956 170.635 12.2354C172.88 12.6319 174.075 14.2642 174.595 16.4038C174.832 17.409 175.006 18.4418 175.042 19.4655C175.051 21.8171 175.006 24.1503 175.006 26.6311ZM169.759 23.3941C169.759 21.5405 169.777 19.7975 169.741 18.0453C169.741 17.6303 169.586 17.1969 169.431 16.8003C169.121 16.0257 168.473 15.8135 167.697 15.8135C166.922 15.8135 166.429 16.2101 166.237 16.9202C165.653 19.0505 165.845 21.2269 165.863 23.4125C167.259 23.3941 168.527 23.3941 169.759 23.3941Z" fill="#BCBACD"/>
<path d="M115.112 7.84593H109.683V3.40088H125.888V7.81827H120.495V37.1538H115.121L115.112 7.84593Z" fill="#BCBACD"/>
</svg>
